<svg xmlns="http://www.w3.org/2000/svg" width="41.97" height="37" viewBox="0 0 41.97 37">
  <defs>
  </defs>
  <path id="Forma_1" data-name="Forma 1" class="cls-1" fill="#7BCE80" d="M1430.79,1153.64a0.967,0.967,0,0,1-.75.36h-5.57a0.977,0.977,0,0,1-.8-0.42,0.941,0.941,0,0,1-.09-0.89l1.17-2.9a0.961,0.961,0,0,1,1.25-.53,0.947,0.947,0,0,1,.53,1.24l-0.64,1.59h2.96l-0.11-.53c-0.28-1.28-1.49-5.49-5.34-5.49h-1.64c-3.85,0-5.06,4.21-5.34,5.49l-0.12.53h2.97l-0.65-1.59a0.958,0.958,0,0,1,1.78-.71l1.18,2.9a0.96,0.96,0,0,1-.89,1.31h-5.58a0.933,0.933,0,0,1-.74-0.36,0.949,0.949,0,0,1-.19-0.8l0.36-1.68c0.94-4.32,3.7-7,7.22-7h1.64c3.51,0,6.28,2.68,7.21,7l0.37,1.68A0.949,0.949,0,0,1,1430.79,1153.64Zm-24.48-23.67a4.837,4.837,0,0,1,3.4-4.62,0.957,0.957,0,0,1,.58,0,4.846,4.846,0,0,1,0,9.25,1.071,1.071,0,0,1-.58,0A4.858,4.858,0,0,1,1406.31,1129.97Zm1.92,0a1.927,1.927,0,1,0,1.77-2.69A2.936,2.936,0,0,0,1408.23,1129.97Zm1.77-9.55a0.958,0.958,0,0,0,.96-0.95v-1.52a0.96,0.96,0,0,0-1.92,0v1.52A0.958,0.958,0,0,0,1410,1120.42Zm8.89,17.13a4.825,4.825,0,0,1,3.4-4.62,0.957,0.957,0,0,1,.58,0,4.839,4.839,0,0,1,0,9.24,0.982,0.982,0,0,1-.29.05,0.929,0.929,0,0,1-.29-0.05A4.825,4.825,0,0,1,1418.89,1137.55Zm1.92,0a1.93,1.93,0,1,0,1.77-2.7A2.946,2.946,0,0,0,1420.81,1137.55Zm0.15-14.21a0.956,0.956,0,0,0,1.31-.35l0.76-1.31a0.942,0.942,0,0,0-.35-1.3,0.963,0.963,0,0,0-1.31.35l-0.76,1.31A0.949,0.949,0,0,0,1420.96,1123.34Zm7.1,8.63a0.912,0.912,0,0,0,.48-0.13l1.32-.75a0.954,0.954,0,0,0,.35-1.31,0.969,0.969,0,0,0-1.31-.35l-1.32.76A0.954,0.954,0,0,0,1428.06,1131.97Zm-34.33,5.58a4.837,4.837,0,0,1,3.4-4.62,0.957,0.957,0,0,1,.58,0,4.839,4.839,0,0,1,0,9.24,0.929,0.929,0,0,1-.29.05,0.982,0.982,0,0,1-.29-0.05A4.837,4.837,0,0,1,1393.73,1137.55Zm1.92,0a1.93,1.93,0,1,0,1.77-2.7A2.946,2.946,0,0,0,1395.65,1137.55Zm2.08-14.56a0.956,0.956,0,0,0,1.66-.95l-0.76-1.31a0.963,0.963,0,0,0-1.31-.35,0.942,0.942,0,0,0-.35,1.3Zm-7.59,8.1,1.32,0.75a0.912,0.912,0,0,0,.48.13,0.954,0.954,0,0,0,.48-1.78l-1.32-.76a0.969,0.969,0,0,0-1.31.35A0.954,0.954,0,0,0,1390.14,1131.09Zm17.69,11.12a0.961,0.961,0,0,0-1.25-.53,0.95,0.95,0,0,0-.53,1.24l0.64,1.59h-0.89a0.955,0.955,0,0,0,0,1.91h2.31a0.977,0.977,0,0,0,.8-0.42,0.967,0.967,0,0,0,.09-0.89Zm-2.37,8.95c-0.94-4.32-3.7-7-7.22-7h-1.64c-3.51,0-6.28,2.68-7.21,7l-0.37,1.68a0.949,0.949,0,0,0,.19.8,0.967,0.967,0,0,0,.75.36h5.57a0.977,0.977,0,0,0,.8-0.42,0.941,0.941,0,0,0,.09-0.89l-1.17-2.9a0.961,0.961,0,0,0-1.25-.53,0.947,0.947,0,0,0-.53,1.24l0.64,1.59h-2.96l0.11-.53c0.28-1.28,1.49-5.49,5.34-5.49h1.64c3.85,0,5.06,4.21,5.34,5.49l0.12,0.53h-2.97l0.65-1.59a0.958,0.958,0,0,0-1.78-.71l-1.18,2.9a0.96,0.96,0,0,0,.89,1.31h5.58a0.933,0.933,0,0,0,.74-0.36,0.949,0.949,0,0,0,.19-0.8Zm10.39-8.31a0.958,0.958,0,0,0,1.82-.6c-1.21-3.6-3.7-5.66-6.85-5.66h-1.64c-3.15,0-5.64,2.06-6.85,5.66a0.945,0.945,0,0,0,.61,1.2,0.789,0.789,0,0,0,.3.05,0.955,0.955,0,0,0,.91-0.65c0.55-1.63,1.92-4.35,5.03-4.35h1.64C1413.93,1138.5,1415.3,1141.22,1415.85,1142.85Zm-0.37,2.62a0.96,0.96,0,0,0-.96-0.96h-1.21l0.64-1.59a0.95,0.95,0,0,0-.53-1.24,0.961,0.961,0,0,0-1.25.53l-1.17,2.9a0.967,0.967,0,0,0,.09.89,0.977,0.977,0,0,0,.8.42h2.63A0.958,0.958,0,0,0,1415.48,1145.47Z" transform="translate(-1389.03 -1117) "/>
</svg>
