<svg width="39" height="39" viewBox="0 0 39 39" fill="none" xmlns="http://www.w3.org/2000/svg">
<path fill-rule="evenodd" clip-rule="evenodd" d="M18.094 1.55005V0.949951C18.094 0.701443 18.1928 0.463197 18.3685 0.287476C18.5442 0.111754 18.7825 0.0129395 19.031 0.0129395C19.2795 0.0129395 19.5178 0.111754 19.6936 0.287476C19.8693 0.463197 19.968 0.701443 19.968 0.949951V1.55005C19.968 1.79856 19.8693 2.0368 19.6936 2.21252C19.5178 2.38825 19.2795 2.48706 19.031 2.48706C18.7825 2.48706 18.5442 2.38825 18.3685 2.21252C18.1928 2.0368 18.094 1.79856 18.094 1.55005V1.55005ZM8.62203 4.63C8.7042 4.77274 8.82251 4.89137 8.96505 4.97388C9.10759 5.05638 9.26935 5.09982 9.43404 5.09998C9.59905 5.10066 9.76098 5.05566 9.902 4.96997C10.1175 4.84343 10.2744 4.63703 10.3386 4.39551C10.4029 4.15398 10.3692 3.89692 10.245 3.68005L9.94503 3.16003C9.88497 3.05199 9.80394 2.95703 9.70668 2.88074C9.60943 2.80444 9.49792 2.7483 9.37868 2.7157C9.25944 2.68309 9.1349 2.6746 9.01235 2.6908C8.8898 2.70699 8.77167 2.7476 8.665 2.81006C8.44879 2.9385 8.29171 3.14661 8.22756 3.38977C8.1634 3.63293 8.19735 3.8916 8.32204 4.10999L8.62203 4.63ZM6.47603 14.5C6.59096 14.5453 6.71375 14.5672 6.83724 14.5645C6.96073 14.5617 7.08244 14.5344 7.19527 14.4841C7.3081 14.4339 7.4098 14.3616 7.4944 14.2716C7.57901 14.1816 7.6448 14.0757 7.68801 13.96C8.55165 11.6487 10.1008 9.65636 12.1279 8.24976C14.1551 6.84315 16.5636 6.08948 19.031 6.08948C21.4984 6.08948 23.9069 6.84315 25.9341 8.24976C27.9613 9.65636 29.5104 11.6487 30.374 13.96C30.4404 14.1385 30.5596 14.2925 30.7157 14.4015C30.8719 14.5105 31.0576 14.5693 31.248 14.5699C31.3644 14.5711 31.4797 14.5473 31.586 14.5C31.7014 14.4552 31.8069 14.3881 31.8963 14.3025C31.9857 14.2169 32.0574 14.1146 32.1072 14.0012C32.157 13.8879 32.1839 13.7658 32.1865 13.6421C32.189 13.5183 32.1671 13.3953 32.122 13.28C31.123 10.6435 29.3584 8.36594 27.055 6.73999C24.7083 5.08095 21.905 4.19019 19.031 4.19019C16.1571 4.19019 13.3538 5.08095 11.007 6.73999C8.70367 8.36594 6.93907 10.6435 5.94002 13.28C5.89494 13.3953 5.87302 13.5183 5.87557 13.6421C5.87812 13.7658 5.90506 13.8879 5.95485 14.0012C6.00464 14.1146 6.0763 14.2169 6.16573 14.3025C6.25516 14.3881 6.36063 14.4552 6.47603 14.5V14.5ZM35.655 12.21C35.8186 12.2096 35.9794 12.1683 36.123 12.09L36.639 11.78C36.8545 11.6535 37.0114 11.447 37.0756 11.2054C37.1399 10.9639 37.1062 10.7069 36.982 10.49C36.9211 10.3828 36.8396 10.2887 36.7423 10.2131C36.6449 10.1375 36.5335 10.0818 36.4146 10.0493C36.2957 10.0168 36.1716 10.0081 36.0493 10.0237C35.927 10.0392 35.809 10.0788 35.702 10.14L35.1861 10.4399C34.9708 10.5693 34.8146 10.7776 34.7505 11.0204C34.6864 11.2632 34.7196 11.5213 34.843 11.74C34.9254 11.8826 35.0437 12.001 35.1862 12.0835C35.3287 12.166 35.4904 12.2096 35.655 12.21V12.21ZM28.155 4.96997C28.2961 5.05566 28.458 5.10066 28.623 5.09998C28.7877 5.09961 28.9494 5.05599 29.0919 4.97351C29.2344 4.89103 29.3527 4.7726 29.435 4.63L29.735 4.10999C29.8597 3.8916 29.8936 3.63293 29.8295 3.38977C29.7653 3.14661 29.6083 2.9385 29.392 2.81006C29.2854 2.7476 29.1672 2.70699 29.0447 2.6908C28.9221 2.6746 28.7976 2.68309 28.6784 2.7157C28.5591 2.7483 28.4476 2.80444 28.3504 2.88074C28.2531 2.95703 28.1721 3.05199 28.112 3.16003L27.812 3.68005C27.6882 3.89752 27.6554 4.15501 27.7205 4.39661C27.7857 4.6382 27.9437 4.84426 28.1601 4.96997H28.155ZM17.367 23.1801C17.5615 23.0199 17.6855 22.79 17.7126 22.5396C17.7397 22.2891 17.6677 22.038 17.512 21.84C17.0636 21.2752 16.5821 20.7377 16.07 20.23C11.724 15.92 5.77005 14.33 1.25905 16.27C1.03106 16.3717 0.851689 16.5582 0.759052 16.79C-1.07395 21.4 0.614004 27.39 4.959 31.7C7.40609 34.2077 10.6053 35.8476 14.07 36.37C14.1091 36.3783 14.1491 36.3816 14.189 36.38C14.4275 36.3752 14.6554 36.2809 14.8275 36.1158C14.9996 35.9508 15.1033 35.7269 15.1181 35.4889C15.1328 35.2509 15.0574 35.016 14.907 34.8309C14.7566 34.6459 14.5421 34.5242 14.306 34.49C11.2489 34.0201 8.42811 32.5667 6.27102 30.35C2.58002 26.68 1.04005 21.73 2.35805 17.87C6.13805 16.46 11.067 17.92 14.758 21.59C15.2181 22.0427 15.6496 22.5237 16.05 23.03C16.1257 23.1284 16.2205 23.2105 16.3286 23.2715C16.4367 23.3325 16.556 23.371 16.6793 23.385C16.8026 23.399 16.9275 23.3881 17.0465 23.3529C17.1655 23.3177 17.2762 23.2589 17.372 23.1801H17.367ZM33.092 31.7C28.985 35.78 23.443 37.42 19.038 35.95C18.666 36.74 18.332 37.54 18.038 38.37C17.9744 38.5534 17.8553 38.7126 17.6973 38.8254C17.5393 38.9383 17.3502 38.9993 17.156 39C17.0476 38.9995 16.9401 38.9791 16.839 38.9399C16.6041 38.8538 16.4129 38.6782 16.3072 38.4514C16.2015 38.2246 16.1899 37.9653 16.275 37.73C16.6515 36.6712 17.0912 35.636 17.592 34.63C16.076 30.1 17.7921 24.39 21.9831 20.23C26.3291 15.92 32.283 14.33 36.793 16.27C37.0209 16.3718 37.2002 16.5584 37.293 16.79C39.131 21.4 37.444 27.39 33.097 31.7H33.092ZM35.692 17.87C31.912 16.46 26.983 17.92 23.292 21.59C20.182 24.67 18.599 28.68 18.965 32.17C20.123 30.3128 21.4947 28.5978 23.052 27.0601L23.783 23.6899C23.809 23.5693 23.8585 23.455 23.9287 23.3535C23.9989 23.252 24.0885 23.1653 24.1923 23.0984C24.296 23.0315 24.4119 22.9858 24.5333 22.9637C24.6548 22.9417 24.7794 22.9438 24.9 22.97C25.144 23.0261 25.356 23.1763 25.4897 23.3879C25.6234 23.5996 25.6681 23.8555 25.614 24.1L25.427 24.96C26.6007 24.0365 27.8456 23.2073 29.15 22.48L29.691 19.98C29.7169 19.8594 29.7663 19.7451 29.8364 19.6436C29.9066 19.5421 29.996 19.4553 30.0996 19.3884C30.2033 19.3215 30.3192 19.2758 30.4406 19.2538C30.562 19.2317 30.6865 19.2339 30.807 19.26C31.051 19.3161 31.263 19.4663 31.3967 19.678C31.5305 19.8896 31.5751 20.1456 31.521 20.39L31.302 21.4C31.631 21.25 31.965 21.11 32.302 20.98C32.4167 20.9341 32.5393 20.9115 32.6627 20.9133C32.7862 20.9152 32.9081 20.9415 33.0213 20.9908C33.1345 21.0401 33.2367 21.1113 33.3222 21.2004C33.4076 21.2896 33.4745 21.3948 33.519 21.51C33.6115 21.7429 33.6081 22.003 33.5096 22.2334C33.4111 22.4638 33.2253 22.646 32.993 22.74C32.1216 23.0898 31.27 23.4871 30.442 23.9301L30.381 23.96C29.5035 24.4291 28.6547 24.9501 27.839 25.52L29.768 25.51C30.02 25.51 30.2616 25.61 30.4398 25.7882C30.6179 25.9664 30.718 26.208 30.718 26.46C30.718 26.7119 30.6179 26.9536 30.4398 27.1317C30.2616 27.3099 30.02 27.41 29.768 27.41L25.411 27.4301C25.14 27.6701 24.873 27.91 24.611 28.16C24.574 28.2102 24.5291 28.2541 24.478 28.29C23.867 28.89 23.2841 29.52 22.7331 30.17L24.854 30.14H24.867C25.119 30.1384 25.3613 30.237 25.5405 30.4141C25.7198 30.5911 25.8214 30.832 25.823 31.084C25.8246 31.3359 25.7261 31.5783 25.549 31.7576C25.372 31.9369 25.131 32.0384 24.879 32.04L21.263 32.09C20.78 32.78 20.329 33.5 19.912 34.24C23.612 35.33 28.254 33.84 31.773 30.35C35.477 26.68 37.0171 21.73 35.6991 17.87H35.692ZM1.41603 11.78L1.93203 12.09C2.07564 12.1682 2.2365 12.2094 2.40004 12.21C2.5647 12.2096 2.72635 12.166 2.86885 12.0835C3.01136 12.001 3.12973 11.8826 3.21206 11.74C3.33623 11.5215 3.3698 11.263 3.30568 11.02C3.24157 10.777 3.08485 10.5687 2.86904 10.4399L2.35305 10.14C2.24606 10.0788 2.12804 10.0392 2.00576 10.0237C1.88347 10.0081 1.75931 10.0168 1.6404 10.0493C1.52149 10.0818 1.41018 10.1375 1.31282 10.2131C1.21547 10.2887 1.13395 10.3828 1.07302 10.49C0.949401 10.7077 0.916824 10.9654 0.98238 11.207C1.04794 11.4487 1.20635 11.6547 1.42305 11.78H1.41603ZM19.031 9.29004C17.6438 9.26822 16.2756 9.61381 15.0651 10.2917C13.8547 10.9697 12.8451 11.9558 12.139 13.15C12.0157 13.3675 11.9829 13.6248 12.0479 13.8662C12.1128 14.1076 12.2702 14.3137 12.486 14.4399C12.5926 14.5024 12.7106 14.5429 12.8331 14.5591C12.9556 14.5753 13.08 14.5668 13.1992 14.5342C13.3183 14.5016 13.4298 14.4455 13.5269 14.3693C13.6241 14.293 13.7051 14.198 13.765 14.09C14.3269 13.2016 15.1044 12.47 16.0251 11.9629C16.9458 11.4558 17.9799 11.1898 19.031 11.1898C20.0821 11.1898 21.1162 11.4558 22.0369 11.9629C22.9577 12.47 23.7351 13.2016 24.297 14.09C24.3773 14.2355 24.4953 14.3569 24.6384 14.4413C24.7816 14.5257 24.9448 14.5701 25.111 14.5699C25.2751 14.5707 25.4361 14.5256 25.576 14.4399C25.7918 14.3137 25.9492 14.1076 26.0142 13.8662C26.0791 13.6248 26.0464 13.3675 25.9231 13.15C25.2169 11.9558 24.2074 10.9697 22.9969 10.2917C21.7865 9.61381 20.4182 9.26822 19.031 9.29004V9.29004ZM9.51802 26.77C9.26739 26.77 9.02703 26.8695 8.84981 27.0468C8.67259 27.224 8.57302 27.4643 8.57302 27.715C8.57302 27.9656 8.67259 28.206 8.84981 28.3832C9.02703 28.5604 9.26739 28.66 9.51802 28.66L12.672 28.6801C13.031 29.0901 13.372 29.53 13.701 29.97C13.7874 30.0894 13.9006 30.187 14.0316 30.2548C14.1625 30.3225 14.3076 30.3585 14.455 30.36C14.6564 30.3606 14.8521 30.2938 15.011 30.17C15.2117 30.0209 15.3453 29.7984 15.3828 29.5511C15.4202 29.3039 15.3585 29.0519 15.211 28.85C13.6874 26.7536 11.7962 24.9512 9.62905 23.53L8.94905 20.39C8.92444 20.2684 8.87589 20.1529 8.80629 20.0502C8.73669 19.9475 8.64742 19.8597 8.5436 19.7917C8.43978 19.7238 8.32347 19.6773 8.2015 19.6547C8.07952 19.632 7.95429 19.6339 7.83303 19.66C7.58938 19.7168 7.37781 19.8671 7.24404 20.0785C7.11027 20.2899 7.065 20.5455 7.118 20.79L7.43904 22.27C6.93904 22.02 6.42804 21.79 5.90804 21.59C5.7936 21.543 5.6709 21.5194 5.5472 21.5208C5.4235 21.5221 5.30129 21.5482 5.18789 21.5977C5.07448 21.6471 4.97216 21.7189 4.88698 21.8086C4.8018 21.8983 4.73552 22.0042 4.69204 22.12C4.60028 22.3529 4.60391 22.6124 4.70217 22.8427C4.80042 23.0729 4.98537 23.2551 5.217 23.35C6.27659 23.7781 7.29739 24.2968 8.26802 24.9C8.29102 24.92 8.31505 24.93 8.34005 24.95C9.20117 25.4916 10.0183 26.1002 10.784 26.77H9.52504H9.51802Z" fill="#63C669"/>
</svg>
