<svg width="24" height="38" viewBox="0 0 24 38" fill="none" xmlns="http://www.w3.org/2000/svg">
<path fill-rule="evenodd" clip-rule="evenodd" d="M11.74 14.12C11.9092 14.1733 12.0908 14.1733 12.26 14.12C13.1192 13.819 13.8636 13.2584 14.3903 12.5159C14.9169 11.7733 15.1998 10.8854 15.1998 9.97498C15.1998 9.06458 14.9169 8.17666 14.3903 7.43408C13.8636 6.6915 13.1192 6.13096 12.26 5.82996C12.0903 5.77995 11.9097 5.77995 11.74 5.82996C10.8808 6.13096 10.1364 6.6915 9.60974 7.43408C9.08306 8.17666 8.80017 9.06458 8.80017 9.97498C8.80017 10.8854 9.08306 11.7733 9.60974 12.5159C10.1364 13.2584 10.8808 13.819 11.74 14.12V14.12ZM12 7.64001C12.5065 7.39727 13.0781 7.32581 13.6288 7.4364C14.1794 7.54699 14.6791 7.83358 15.0526 8.25305C15.4261 8.67252 15.653 9.20211 15.6992 9.76184C15.7454 10.3216 15.6083 10.8811 15.3086 11.3561C15.0089 11.8311 14.5629 12.1958 14.0378 12.3951C13.5128 12.5945 12.9371 12.6176 12.3977 12.4612C11.8583 12.3047 11.3844 11.9771 11.0475 11.5277C10.7106 11.0783 10.529 10.5316 10.53 9.96997C10.5247 9.4813 10.6606 9.00146 10.9214 8.58813C11.1822 8.17481 11.5567 7.84563 12 7.64001V7.64001ZM20.9301 11.58C20.9278 11.465 20.9482 11.3507 20.9902 11.2437C21.0323 11.1366 21.0951 11.039 21.175 10.9563C21.255 10.8736 21.3504 10.8074 21.4559 10.7617C21.5615 10.716 21.675 10.6916 21.79 10.6899H22.39C22.6188 10.7008 22.8345 10.7994 22.9926 10.9651C23.1506 11.1308 23.2388 11.351 23.2388 11.58C23.2388 11.809 23.1506 12.0292 22.9926 12.1949C22.8345 12.3607 22.6188 12.4591 22.39 12.47H21.79C21.675 12.4683 21.5615 12.4439 21.4559 12.3982C21.3504 12.3525 21.255 12.2864 21.175 12.2037C21.0951 12.121 21.0323 12.0233 20.9902 11.9163C20.9482 11.8092 20.9278 11.6949 20.9301 11.58V11.58ZM18.3101 5.07996C18.1466 4.91099 18.0551 4.68507 18.0551 4.44995C18.0551 4.21483 18.1466 3.98892 18.3101 3.81995L18.73 3.39001C18.8095 3.30707 18.9051 3.24101 19.0107 3.19592C19.1164 3.15084 19.2301 3.12769 19.345 3.12769C19.4599 3.12769 19.5736 3.15084 19.6793 3.19592C19.785 3.24101 19.8804 3.30707 19.96 3.39001C20.1235 3.55898 20.2148 3.7849 20.2148 4.02002C20.2148 4.25514 20.1235 4.48105 19.96 4.65002L19.54 5.08997C19.4591 5.17222 19.3625 5.23759 19.2561 5.28223C19.1497 5.32686 19.0355 5.34988 18.92 5.34998C18.8053 5.34925 18.6919 5.32489 18.5869 5.27844C18.482 5.23199 18.3878 5.16442 18.3101 5.07996ZM11.13 1.5V0.890015C11.13 0.659276 11.2216 0.437937 11.3848 0.27478C11.5479 0.111624 11.7693 0.0200195 12 0.0200195C12.2307 0.0200195 12.4521 0.111624 12.6152 0.27478C12.7784 0.437937 12.87 0.659276 12.87 0.890015V1.5C12.87 1.73074 12.7784 1.95208 12.6152 2.11523C12.4521 2.27839 12.2307 2.37 12 2.37C11.7693 2.37 11.5479 2.27839 11.3848 2.11523C11.2216 1.95208 11.13 1.73074 11.13 1.5V1.5ZM24 34.33C24.0115 35.2895 23.6423 36.2146 22.9731 36.9025C22.304 37.5903 21.3896 37.985 20.4301 38H14.7C14.4639 38 14.2376 37.9063 14.0707 37.7394C13.9038 37.5725 13.8101 37.346 13.8101 37.11C13.8101 36.8739 13.9038 36.6476 14.0707 36.4807C14.2376 36.3138 14.4639 36.22 14.7 36.22H20.4301C20.9207 36.204 21.3858 35.998 21.7272 35.6453C22.0686 35.2926 22.2595 34.8208 22.2595 34.33C22.2595 33.8391 22.0686 33.3675 21.7272 33.0148C21.3858 32.6621 20.9207 32.4559 20.4301 32.4399H3.56995C3.07933 32.4559 2.61424 32.6621 2.27283 33.0148C1.93141 33.3675 1.74048 33.8391 1.74048 34.33C1.74048 34.8208 1.93141 35.2926 2.27283 35.6453C2.61424 35.998 3.07933 36.204 3.56995 36.22H9.03003L12.75 33.59C12.8448 33.5249 12.9516 33.4795 13.0642 33.4563C13.1768 33.4331 13.2928 33.4328 13.4055 33.4552C13.5183 33.4776 13.6254 33.5222 13.7206 33.5865C13.8158 33.6509 13.8972 33.7337 13.96 33.83C14.09 34.0261 14.1387 34.2651 14.0958 34.4965C14.0529 34.7278 13.9217 34.9335 13.73 35.0699L9.79004 37.84C9.64959 37.9474 9.47681 38.0038 9.30005 38H3.56995C2.61144 37.9776 1.69978 37.5811 1.02979 36.8953C0.359789 36.2094 -0.0153809 35.2887 -0.0153809 34.33C-0.0153809 33.3712 0.359789 32.4505 1.02979 31.7646C1.69978 31.0788 2.61144 30.6824 3.56995 30.66H11.13V21.4C11.1244 21.2823 11.1427 21.1645 11.1838 21.0541C11.225 20.9436 11.2882 20.8427 11.3695 20.7573C11.4508 20.672 11.5487 20.604 11.6571 20.5576C11.7655 20.5112 11.8821 20.4873 12 20.4873C12.1179 20.4873 12.2345 20.5112 12.3429 20.5576C12.4513 20.604 12.5492 20.672 12.6305 20.7573C12.7118 20.8427 12.775 20.9436 12.8162 21.0541C12.8573 21.1645 12.8756 21.2823 12.87 21.4V30.66H20.4301C21.3896 30.675 22.304 31.0697 22.9731 31.7576C23.6423 32.4454 24.0115 33.3704 24 34.33V34.33ZM0.219971 24.01C0.271908 22.7926 0.625323 21.607 1.24841 20.5598C1.8715 19.5126 2.74484 18.6365 3.79004 18.01C6.24478 16.487 9.07612 15.6799 11.965 15.6799C14.8538 15.6799 17.6853 16.487 20.14 18.01C21.1852 18.6365 22.0586 19.5126 22.6816 20.5598C23.3047 21.607 23.658 22.7926 23.71 24.01C23.7124 24.2433 23.6222 24.468 23.4591 24.6349C23.296 24.8017 23.0733 24.8971 22.84 24.9H15.2C14.9666 24.8971 14.744 24.8017 14.5809 24.6349C14.4178 24.468 14.3276 24.2433 14.33 24.01V21.4C14.3243 21.2823 14.3426 21.1645 14.3838 21.0541C14.425 20.9436 14.4882 20.8427 14.5696 20.7573C14.6509 20.672 14.7487 20.604 14.8571 20.5576C14.9654 20.5112 15.0821 20.4873 15.2 20.4873C15.3178 20.4873 15.4346 20.5112 15.543 20.5576C15.6513 20.604 15.7491 20.672 15.8304 20.7573C15.9118 20.8427 15.9749 20.9436 16.0161 21.0541C16.0573 21.1645 16.0756 21.2823 16.0699 21.4V23.12H21.88C21.4836 21.6088 20.5155 20.3108 19.1801 19.5C17.0076 18.1725 14.5109 17.4701 11.965 17.4701C9.41901 17.4701 6.92245 18.1725 4.75 19.5C3.41456 20.3108 2.44649 21.6088 2.05005 23.12H7.85999V21.4C7.85434 21.2823 7.87265 21.1645 7.91382 21.0541C7.95499 20.9436 8.01814 20.8427 8.09949 20.7573C8.18083 20.672 8.27871 20.604 8.38708 20.5576C8.49546 20.5112 8.61209 20.4873 8.72998 20.4873C8.84788 20.4873 8.9645 20.5112 9.07288 20.5576C9.18125 20.604 9.27913 20.672 9.36047 20.7573C9.44182 20.8427 9.50497 20.9436 9.54614 21.0541C9.58732 21.1645 9.60562 21.2823 9.59998 21.4V24.01C9.60238 24.2433 9.5121 24.468 9.349 24.6349C9.1859 24.8017 8.96329 24.8971 8.72998 24.9H1.07996C0.848308 24.8948 0.628173 24.7983 0.467163 24.6317C0.306153 24.4651 0.217278 24.2417 0.219971 24.01V24.01ZM0.75 11.58C0.747748 11.465 0.768251 11.3507 0.810303 11.2437C0.852354 11.1366 0.915082 11.039 0.994995 10.9563C1.07491 10.8736 1.17047 10.8074 1.276 10.7617C1.38154 10.716 1.495 10.6916 1.60999 10.6899H2.20996C2.43871 10.7008 2.65457 10.7994 2.81262 10.9651C2.97067 11.1308 3.05884 11.351 3.05884 11.58C3.05884 11.809 2.97067 12.0292 2.81262 12.1949C2.65457 12.3607 2.43871 12.4591 2.20996 12.47H1.60999C1.495 12.4683 1.38154 12.4439 1.276 12.3982C1.17047 12.3525 1.07491 12.2864 0.994995 12.2037C0.915082 12.121 0.852354 12.0233 0.810303 11.9163C0.768251 11.8092 0.747748 11.6949 0.75 11.58V11.58ZM4.04004 4.65002C3.87655 4.48105 3.78516 4.25514 3.78516 4.02002C3.78516 3.7849 3.87655 3.55898 4.04004 3.39001C4.11956 3.30707 4.21499 3.24101 4.32068 3.19592C4.42637 3.15084 4.54012 3.12769 4.65503 3.12769C4.76993 3.12769 4.88357 3.15084 4.98926 3.19592C5.09495 3.24101 5.1905 3.30707 5.27002 3.39001L5.68994 3.81995C5.85343 3.98892 5.94495 4.21483 5.94495 4.44995C5.94495 4.68507 5.85343 4.91099 5.68994 5.07996C5.61173 5.16512 5.51675 5.23315 5.41089 5.27966C5.30502 5.32617 5.19058 5.35022 5.07495 5.35022C4.95932 5.35022 4.845 5.32617 4.73914 5.27966C4.63327 5.23315 4.53818 5.16512 4.45996 5.07996L4.04004 4.65002Z" fill="white"/>
</svg>
