<svg xmlns="http://www.w3.org/2000/svg" width="30" height="38" viewBox="0 0 30 38">
  <defs>
    <style>
      .cls-1 {
        fill: #63c76a;
        fill-rule: evenodd;
      }
    </style>
  </defs>
  <path id="Forma_1" data-name="Forma 1" class="cls-1" d="M508.022,1125.57v-8.56a0.861,0.861,0,1,1,1.721,0v8.56a3.816,3.816,0,1,0,7.632,0v-8.56a0.861,0.861,0,1,1,1.722,0v8.56a5.577,5.577,0,0,1-4.677,5.51v3.49a0.861,0.861,0,1,1-1.721,0v-3.49A5.577,5.577,0,0,1,508.022,1125.57Zm3.978,0.87a0.865,0.865,0,0,0,.86-0.87v-8.56a0.861,0.861,0,1,0-1.721,0v8.56A0.866,0.866,0,0,0,512,1126.44Zm3.119,0a0.866,0.866,0,0,0,.861-0.87v-8.56a0.861,0.861,0,1,0-1.722,0v8.56A0.866,0.866,0,0,0,515.119,1126.44Zm-13.721,4.64v5.08a2.72,2.72,0,0,1,1.844,2.58v11.35a2.705,2.705,0,1,1-5.41,0v-11.35a2.721,2.721,0,0,1,1.844-2.58v-5.08a5.577,5.577,0,0,1-4.677-5.51v-4a5.538,5.538,0,1,1,11.076,0v4A5.577,5.577,0,0,1,501.4,1131.08Zm-0.861,6.67a0.985,0.985,0,0,0-.983.99v11.35a0.984,0.984,0,1,0,1.967,0v-11.35A0.986,0.986,0,0,0,500.537,1137.75Zm3.816-12.18v-4a3.837,3.837,0,0,0-3.816-3.84h0a3.837,3.837,0,0,0-3.816,3.84v4A3.816,3.816,0,1,0,504.353,1125.57Zm-3.695-6.49a2.8,2.8,0,0,0-2.8,2.69,0.861,0.861,0,0,0,.819.9h0.041a0.861,0.861,0,0,0,.859-0.82,1.076,1.076,0,0,1,1.076-1.03A0.87,0.87,0,0,0,500.658,1119.08Zm24.334,27.29c-0.468,3.39-3.432,6.33-7.375,7.3a11.336,11.336,0,0,1-2.688.33,9.3,9.3,0,0,1-5.586-1.75,7.7,7.7,0,0,1-2.3-.19l-0.395.48a0.851,0.851,0,0,1-1.212.11,0.869,0.869,0,0,1-.112-1.22l0.394-.48c-1.374-3.1-.626-7.15,1.951-10.27,2.729-3.31,6.849-4.78,10.253-3.66a0.848,0.848,0,0,1,.488.41,8.349,8.349,0,0,1,.866,5.06,9.651,9.651,0,0,1,2.4.71,7.656,7.656,0,0,1,3.164,2.55A0.868,0.868,0,0,1,524.992,1146.37Zm-15.355,4.12a8.723,8.723,0,0,0,5.005-2.53c0.019-.02.038-0.04,0.059-0.06,0.242-.24.475-0.5,0.7-0.77a9.839,9.839,0,0,0,2.008-3.95,0.858,0.858,0,0,1,.055-0.24,6.945,6.945,0,0,0-.4-4.37c-2.643-.68-5.908.6-8.063,3.22a8.684,8.684,0,0,0-2,7.62l5.032-6.1a0.852,0.852,0,0,1,1.213-.11,0.871,0.871,0,0,1,.112,1.22l-5.031,6.1a6.443,6.443,0,0,0,1.076,0A1.006,1.006,0,0,1,509.637,1150.49Zm13.591-4.02a6.077,6.077,0,0,0-2.251-1.69,8.22,8.22,0,0,0-2.064-.59,11.465,11.465,0,0,1-1.349,2.9l1.645-.4a0.856,0.856,0,0,1,1.041.63,0.94,0.94,0,0,1,.024.21,0.866,0.866,0,0,1-.656.84l-3.916.96a11.165,11.165,0,0,1-3.788,2.38,8.931,8.931,0,0,0,5.294.28C520.283,1151.23,522.7,1148.99,523.228,1146.47Z" transform="translate(-495 -1116)"/>
</svg>
