<svg xmlns="http://www.w3.org/2000/svg" width="24" height="38" viewBox="0 0 24 38">
  <defs>
  </defs>
  <path id="Forma_1" data-name="Forma 1" class="cls-1" d="M1109.74,1130.12a0.865,0.865,0,0,0,.52,0,4.392,4.392,0,0,0,0-8.29,0.92,0.92,0,0,0-.52,0A4.392,4.392,0,0,0,1109.74,1130.12Zm0.26-6.48a2.589,2.589,0,1,1-1.47,2.33A2.538,2.538,0,0,1,1110,1123.64Zm8.93,3.94a0.873,0.873,0,0,1,.86-0.89h0.6a0.891,0.891,0,0,1,0,1.78h-0.6A0.873,0.873,0,0,1,1118.93,1127.58Zm-2.62-6.5a0.906,0.906,0,0,1,0-1.26l0.42-.43a0.852,0.852,0,0,1,1.23,0,0.906,0.906,0,0,1,0,1.26l-0.42.44a0.871,0.871,0,0,1-.62.26A0.836,0.836,0,0,1,1116.31,1121.08Zm-7.18-3.58v-0.61a0.87,0.87,0,1,1,1.74,0v0.61A0.87,0.87,0,1,1,1109.13,1117.5Zm12.87,32.83a3.627,3.627,0,0,1-3.57,3.67h-5.73a0.89,0.89,0,0,1,0-1.78h5.73a1.891,1.891,0,0,0,0-3.78h-16.86a1.891,1.891,0,0,0,0,3.78h5.46l3.72-2.63a0.862,0.862,0,0,1,1.21.24,0.907,0.907,0,0,1-.23,1.24l-3.94,2.77a0.779,0.779,0,0,1-.49.16h-5.73a3.671,3.671,0,0,1,0-7.34h7.56v-9.26a0.871,0.871,0,1,1,1.74,0v9.26h7.56A3.627,3.627,0,0,1,1122,1150.33Zm-23.78-10.32a7.361,7.361,0,0,1,3.57-6,15.506,15.506,0,0,1,16.35,0,7.361,7.361,0,0,1,3.57,6,0.881,0.881,0,0,1-.87.89h-7.64a0.881,0.881,0,0,1-.87-0.89v-2.61a0.871,0.871,0,1,1,1.74,0v1.72h5.81a6.023,6.023,0,0,0-2.7-3.62,13.837,13.837,0,0,0-14.43,0,6.023,6.023,0,0,0-2.7,3.62h5.81v-1.72a0.871,0.871,0,1,1,1.74,0v2.61a0.881,0.881,0,0,1-.87.89h-7.65A0.88,0.88,0,0,1,1098.22,1140.01Zm0.53-12.43a0.873,0.873,0,0,1,.86-0.89h0.6a0.891,0.891,0,0,1,0,1.78h-0.6A0.873,0.873,0,0,1,1098.75,1127.58Zm3.29-6.93a0.906,0.906,0,0,1,0-1.26,0.852,0.852,0,0,1,1.23,0l0.42,0.43a0.906,0.906,0,0,1,0,1.26,0.835,0.835,0,0,1-1.23,0Z" transform="translate(-1098 -1116)"/>
</svg>
