<svg xmlns="http://www.w3.org/2000/svg" width="38.062" height="39" viewBox="0 0 38.062 39">
  <defs>
    <style>
      .cls-1 {
        fill: #fff;
        fill-rule: evenodd;
      }
    </style>
  </defs>
  <path id="Forma_1" data-name="Forma 1" class="cls-1" d="M809.063,1117.55v-0.6a0.937,0.937,0,1,1,1.874,0v0.6A0.937,0.937,0,1,1,809.063,1117.55Zm-9.472,3.08a0.938,0.938,0,0,0,.812.47,0.894,0.894,0,0,0,.468-0.13,0.949,0.949,0,0,0,.343-1.29l-0.3-.52a0.928,0.928,0,0,0-1.28-.35,0.959,0.959,0,0,0-.343,1.3Zm-2.146,9.87a0.93,0.93,0,0,0,1.212-.54,12.109,12.109,0,0,1,22.686,0,0.936,0.936,0,0,0,.874.61,0.813,0.813,0,0,0,.338-0.07,0.941,0.941,0,0,0,.536-1.22,14.137,14.137,0,0,0-5.067-6.54,13.9,13.9,0,0,0-16.048,0,14.137,14.137,0,0,0-5.067,6.54A0.941,0.941,0,0,0,797.445,1130.5Zm29.179-2.29a0.982,0.982,0,0,0,.468-0.12l0.516-.31a0.949,0.949,0,0,0,.343-1.29,0.937,0.937,0,0,0-1.28-.35l-0.516.3a0.964,0.964,0,0,0-.343,1.3A0.94,0.94,0,0,0,826.624,1128.21Zm-7.5-7.24a0.894,0.894,0,0,0,.468.13,0.94,0.94,0,0,0,.812-0.47l0.3-.52a0.959,0.959,0,0,0-.343-1.3,0.928,0.928,0,0,0-1.28.35l-0.3.52A0.949,0.949,0,0,0,819.129,1120.97Zm-10.788,18.21a0.964,0.964,0,0,0,.145-1.34,18.228,18.228,0,0,0-1.442-1.61c-4.346-4.31-10.3-5.9-14.811-3.96a0.959,0.959,0,0,0-.5.52c-1.833,4.61-.145,10.6,4.2,14.91a16.08,16.08,0,0,0,9.111,4.67,0.479,0.479,0,0,0,.119.01,0.95,0.95,0,0,0,.117-1.89,14.227,14.227,0,0,1-8.035-4.14c-3.691-3.67-5.231-8.62-3.913-12.48,3.78-1.41,8.709.05,12.4,3.72a15.555,15.555,0,0,1,1.292,1.44A0.926,0.926,0,0,0,808.341,1139.18Zm15.725,8.52c-4.107,4.08-9.649,5.72-14.054,4.25-0.372.79-.706,1.59-1,2.42a0.937,0.937,0,0,1-.882.63,0.89,0.89,0,0,1-.317-0.06,0.946,0.946,0,0,1-.564-1.21,28.024,28.024,0,0,1,1.317-3.1c-1.516-4.53.2-10.24,4.391-14.4,4.346-4.31,10.3-5.9,14.81-3.96a0.961,0.961,0,0,1,.5.52C830.1,1137.4,828.413,1143.39,824.066,1147.7Zm2.6-13.83c-3.78-1.41-8.709.05-12.4,3.72-3.11,3.08-4.693,7.09-4.327,10.58a28,28,0,0,1,4.087-5.11l0.731-3.37a0.939,0.939,0,0,1,1.117-.72,0.949,0.949,0,0,1,.714,1.13l-0.187.86a28.339,28.339,0,0,1,3.723-2.48l0.541-2.5a0.938,0.938,0,0,1,1.116-.72,0.949,0.949,0,0,1,.714,1.13l-0.219,1.01c0.329-.15.663-0.29,1-0.42a0.933,0.933,0,0,1,1.217.53,0.949,0.949,0,0,1-.526,1.23,25.737,25.737,0,0,0-2.551,1.19l-0.061.03a25.112,25.112,0,0,0-2.542,1.56l1.929-.01h0a0.95,0.95,0,0,1,0,1.9l-4.357.02c-0.271.24-.538,0.48-0.8,0.73a0.583,0.583,0,0,1-.133.13c-0.611.6-1.194,1.23-1.745,1.88l2.121-.03h0.013a0.95,0.95,0,0,1,.012,1.9l-3.616.05c-0.483.69-.934,1.41-1.351,2.15,3.7,1.09,8.342-.4,11.861-3.89C826.446,1142.68,827.986,1137.73,826.668,1133.87Zm-34.276-6.09,0.516,0.31a0.985,0.985,0,0,0,.468.12,0.94,0.94,0,0,0,.812-0.47,0.961,0.961,0,0,0-.343-1.3l-0.516-.3a0.937,0.937,0,0,0-1.28.35A0.949,0.949,0,0,0,792.392,1127.78ZM810,1125.29a7.863,7.863,0,0,0-6.892,3.86,0.951,0.951,0,0,0,.347,1.29,0.927,0.927,0,0,0,1.279-.35,6.231,6.231,0,0,1,10.532,0,0.929,0.929,0,0,0,.814.48,0.883,0.883,0,0,0,.465-0.13,0.951,0.951,0,0,0,.347-1.29A7.863,7.863,0,0,0,810,1125.29Zm-9.513,17.48a0.945,0.945,0,0,0,0,1.89l3.154,0.02c0.359,0.41.7,0.85,1.029,1.29a0.942,0.942,0,0,0,.754.39,0.9,0.9,0,0,0,.556-0.19,0.948,0.948,0,0,0,.2-1.32,21.424,21.424,0,0,0-5.582-5.32l-0.68-3.14a0.937,0.937,0,0,0-1.116-.73,0.953,0.953,0,0,0-.715,1.13l0.321,1.48c-0.5-.25-1.011-0.48-1.531-0.68a0.924,0.924,0,0,0-1.216.53,0.952,0.952,0,0,0,.525,1.23,19.913,19.913,0,0,1,3.051,1.55c0.023,0.02.047,0.03,0.072,0.05a19.4,19.4,0,0,1,2.444,1.82h-1.259Z" transform="translate(-790.969 -1116)"/>
</svg>
