<svg width="42" height="37" viewBox="0 0 42 37" fill="none" xmlns="http://www.w3.org/2000/svg">
<g clip-path="url(#clip0)">
<path fill-rule="evenodd" clip-rule="evenodd" d="M41.7601 36.64C41.6697 36.7521 41.5555 36.8425 41.4257 36.9048C41.2959 36.9671 41.154 36.9996 41.0101 37H35.44C35.2827 36.9996 35.1278 36.9612 34.9886 36.8881C34.8493 36.8149 34.7297 36.7092 34.6401 36.58C34.5524 36.4507 34.4982 36.3017 34.4825 36.1464C34.4668 35.991 34.4899 35.8341 34.55 35.6899L35.72 32.79C35.8157 32.5542 36.001 32.3658 36.2354 32.2665C36.4697 32.1671 36.7339 32.1648 36.97 32.26C37.0868 32.3059 37.1932 32.3745 37.2832 32.4619C37.3733 32.5493 37.445 32.6538 37.4943 32.7692C37.5436 32.8845 37.5695 33.0086 37.5705 33.134C37.5714 33.2595 37.5476 33.3839 37.5 33.5L36.86 35.09H39.82L39.71 34.5601C39.43 33.2801 38.22 29.0699 34.37 29.0699H32.73C28.88 29.0699 27.6701 33.2801 27.3901 34.5601L27.2701 35.09H30.24L29.59 33.5C29.4959 33.264 29.4993 33.0002 29.5996 32.7667C29.7 32.5332 29.889 32.3492 30.125 32.255C30.3611 32.1609 30.6248 32.1643 30.8583 32.2646C31.0918 32.365 31.2759 32.554 31.37 32.79L32.55 35.6899C32.6068 35.8352 32.6275 35.9921 32.6101 36.1471C32.5928 36.3021 32.5378 36.4505 32.4501 36.5795C32.3625 36.7085 32.2448 36.8142 32.1071 36.8875C31.9694 36.9607 31.8159 36.9994 31.66 37H26.08C25.9373 37.0006 25.7964 36.9684 25.6681 36.906C25.5398 36.8436 25.4276 36.7526 25.34 36.64C25.2504 36.5295 25.1867 36.4001 25.1538 36.2616C25.121 36.1231 25.1197 35.979 25.1501 35.84L25.51 34.16C26.45 29.84 29.21 27.16 32.73 27.16H34.37C37.88 27.16 40.65 29.84 41.58 34.16L41.95 35.84C41.9803 35.979 41.9791 36.1231 41.9462 36.2616C41.9133 36.4001 41.8497 36.5295 41.7601 36.64V36.64ZM17.2801 12.97C17.2798 11.9379 17.6095 10.9328 18.2212 10.1016C18.833 9.27033 19.6945 8.65659 20.68 8.34998C20.8687 8.28998 21.0714 8.28998 21.26 8.34998C22.2454 8.65822 23.1066 9.27316 23.7181 10.1051C24.3295 10.937 24.6592 11.9425 24.6592 12.975C24.6592 14.0075 24.3295 15.0129 23.7181 15.8448C23.1066 16.6768 22.2454 17.2917 21.26 17.6C21.0704 17.6533 20.8696 17.6533 20.68 17.6C19.6946 17.29 18.8337 16.6739 18.2223 15.8413C17.6109 15.0087 17.2809 14.0029 17.2801 12.97V12.97ZM19.2 12.97C19.3377 13.2893 19.5592 13.5654 19.8411 13.769C20.123 13.9727 20.4548 14.0962 20.8012 14.1266C21.1476 14.157 21.4958 14.093 21.8089 13.9415C22.1219 13.79 22.3881 13.5567 22.5793 13.2662C22.7704 12.9757 22.8795 12.6389 22.8947 12.2915C22.9099 11.9441 22.8309 11.599 22.6659 11.2928C22.501 10.9867 22.2561 10.7309 21.9576 10.5526C21.659 10.3743 21.3178 10.2801 20.97 10.28C20.445 10.5072 19.9978 10.8828 19.6834 11.3607C19.3689 11.8386 19.2009 12.3979 19.2 12.97V12.97ZM20.97 3.42004C21.2231 3.42058 21.4661 3.32093 21.6459 3.14294C21.8258 2.96495 21.9279 2.72301 21.93 2.46997V0.949951C21.93 0.695343 21.8289 0.451153 21.6488 0.271118C21.4688 0.0910832 21.2246 -0.0100098 20.97 -0.0100098C20.7154 -0.0100098 20.4712 0.0910832 20.2912 0.271118C20.1111 0.451153 20.01 0.695343 20.01 0.949951V2.46997C20.0122 2.72301 20.1142 2.96495 20.2941 3.14294C20.474 3.32093 20.717 3.42058 20.97 3.42004V3.42004ZM29.86 20.55C29.8578 19.5175 30.1869 18.5115 30.7989 17.6799C31.4109 16.8483 32.2736 16.235 33.2601 15.9301C33.4487 15.8701 33.6513 15.8701 33.84 15.9301C34.8253 16.237 35.6866 16.8508 36.2983 17.682C36.9099 18.5132 37.2398 19.5181 37.2398 20.55C37.2398 21.582 36.9099 22.5869 36.2983 23.4181C35.6866 24.2493 34.8253 24.8631 33.84 25.17C33.7464 25.2012 33.6486 25.218 33.55 25.22C33.4513 25.2188 33.3534 25.202 33.2601 25.17C32.2736 24.8651 31.4109 24.2518 30.7989 23.4202C30.1869 22.5886 29.8578 21.5826 29.86 20.55V20.55ZM31.7801 20.55C31.9189 20.8692 32.1414 21.1448 32.4241 21.3478C32.7068 21.5508 33.0392 21.6735 33.386 21.703C33.7328 21.7325 34.0811 21.6678 34.3941 21.5155C34.7071 21.3632 34.973 21.1292 35.1639 20.8381C35.3547 20.5471 35.4633 20.2098 35.4781 19.8621C35.4929 19.5143 35.4134 19.1691 35.248 18.8629C35.0826 18.5567 34.8374 18.3009 34.5385 18.1226C34.2396 17.9443 33.898 17.85 33.55 17.85C33.0242 18.0789 32.5767 18.4563 32.2622 18.9359C31.9478 19.4155 31.7803 19.9766 31.7801 20.55V20.55ZM31.93 6.33997C32.0389 6.40337 32.1593 6.4447 32.2842 6.46143C32.4091 6.47815 32.536 6.46991 32.6578 6.43738C32.7795 6.40485 32.8937 6.34864 32.9936 6.27185C33.0935 6.19506 33.1773 6.09926 33.24 5.98999L34 4.68005C34.0638 4.57206 34.1052 4.45238 34.1221 4.32812C34.139 4.20387 34.1309 4.0775 34.0983 3.95642C34.0657 3.83534 34.0093 3.72203 33.9323 3.62305C33.8553 3.52407 33.7594 3.44141 33.6501 3.38C33.4297 3.25383 33.1684 3.21985 32.923 3.2854C32.6777 3.35095 32.4681 3.5107 32.34 3.72998L31.58 5.04004C31.5172 5.14828 31.4765 5.2678 31.4601 5.39185C31.4437 5.51589 31.452 5.64199 31.4845 5.76282C31.5171 5.88364 31.5733 5.99689 31.6497 6.09595C31.7261 6.195 31.8213 6.27787 31.93 6.33997ZM39.0301 14.97C39.199 14.9719 39.3652 14.9269 39.5101 14.84L40.83 14.09C40.9395 14.0274 41.0354 13.9438 41.1123 13.8439C41.1893 13.744 41.2457 13.6299 41.2782 13.5081C41.3108 13.3862 41.3189 13.2591 41.302 13.1342C41.2852 13.0092 41.2436 12.8889 41.18 12.78C41.0508 12.5619 40.8414 12.4031 40.5965 12.3376C40.3516 12.2722 40.0908 12.3055 39.87 12.4301L38.55 13.1899C38.368 13.2951 38.2258 13.4576 38.1455 13.6519C38.0653 13.8461 38.0515 14.0614 38.1062 14.2644C38.161 14.4674 38.2812 14.6466 38.4483 14.7742C38.6153 14.9018 38.8199 14.9706 39.0301 14.97V14.97ZM4.69999 20.55C4.6997 19.518 5.02955 18.5129 5.64128 17.6816C6.253 16.8504 7.11455 16.2367 8.10002 15.9301C8.28869 15.8701 8.49129 15.8701 8.67997 15.9301C9.66522 16.237 10.5266 16.8508 11.1382 17.682C11.7499 18.5132 12.0798 19.5181 12.0798 20.55C12.0798 21.582 11.7499 22.5869 11.1382 23.4181C10.5266 24.2493 9.66522 24.8631 8.67997 25.17C8.58658 25.202 8.48876 25.2188 8.39005 25.22C8.29143 25.218 8.19362 25.2012 8.10002 25.17C7.11455 24.8634 6.253 24.2496 5.64128 23.4183C5.02955 22.5871 4.6997 21.5821 4.69999 20.55V20.55ZM6.62004 20.55C6.75889 20.8692 6.98148 21.1448 7.2642 21.3478C7.54692 21.5508 7.87921 21.6735 8.22599 21.703C8.57278 21.7325 8.92108 21.6678 9.23405 21.5155C9.54702 21.3632 9.81301 21.1292 10.0038 20.8381C10.1946 20.5471 10.3032 20.2098 10.318 19.8621C10.3328 19.5143 10.2533 19.1691 10.0879 18.8629C9.92254 18.5567 9.67736 18.3009 9.37846 18.1226C9.07956 17.9443 8.7381 17.85 8.39005 17.85C7.86425 18.0789 7.41663 18.4563 7.10221 18.9359C6.7878 19.4155 6.62025 19.9766 6.62004 20.55V20.55ZM8.69999 5.98999C8.76237 6.09899 8.84565 6.19466 8.94499 6.27148C9.04433 6.34831 9.15779 6.40478 9.27897 6.43774C9.40015 6.47071 9.52671 6.47954 9.65129 6.46362C9.77586 6.4477 9.89605 6.40735 10.005 6.34497C10.114 6.28259 10.2097 6.19944 10.2865 6.1001C10.3634 6.00076 10.4198 5.88717 10.4528 5.76599C10.4858 5.64481 10.4945 5.51837 10.4786 5.3938C10.4626 5.26923 10.4224 5.14904 10.36 5.04004L9.60002 3.72998C9.47193 3.5107 9.26235 3.35095 9.01701 3.2854C8.77166 3.21985 8.51035 3.25383 8.28996 3.38C8.18063 3.44141 8.08471 3.52407 8.00773 3.62305C7.93075 3.72203 7.87431 3.83534 7.84171 3.95642C7.80912 4.0775 7.80103 4.20387 7.81791 4.32812C7.83479 4.45238 7.87626 4.57206 7.93998 4.68005L8.69999 5.98999ZM1.11003 14.09L2.42997 14.84C2.57484 14.9269 2.741 14.9719 2.90995 14.97C3.12016 14.9706 3.32469 14.9018 3.49174 14.7742C3.65879 14.6466 3.77905 14.4674 3.83378 14.2644C3.88851 14.0614 3.87472 13.8461 3.79447 13.6519C3.71422 13.4576 3.57206 13.2951 3.39005 13.1899L2.06999 12.4301C1.84924 12.3055 1.58844 12.2722 1.34355 12.3376C1.09866 12.4031 0.889239 12.5619 0.76005 12.78C0.696376 12.8889 0.654843 13.0092 0.63798 13.1342C0.621116 13.2591 0.629236 13.3862 0.661783 13.5081C0.69433 13.6299 0.750737 13.744 0.827677 13.8439C0.904616 13.9438 1.00056 14.0274 1.11003 14.09V14.09ZM18.8 25.21C18.7043 24.9741 18.5189 24.7859 18.2846 24.6865C18.0502 24.5872 17.786 24.5848 17.55 24.6801C17.4335 24.7263 17.3273 24.7951 17.2375 24.8826C17.1477 24.97 17.0762 25.0744 17.0269 25.1897C16.9776 25.305 16.9517 25.4289 16.9505 25.5542C16.9493 25.6795 16.973 25.8039 17.0201 25.92L17.66 27.51H16.7701C16.5168 27.51 16.2739 27.6106 16.0948 27.7897C15.9157 27.9688 15.815 28.2117 15.815 28.465C15.815 28.7182 15.9157 28.9612 16.0948 29.1403C16.2739 29.3194 16.5168 29.42 16.7701 29.42H19.08C19.2373 29.4196 19.3923 29.3811 19.5315 29.308C19.6708 29.2349 19.7904 29.1292 19.88 29C19.9656 28.8699 20.0184 28.721 20.0341 28.566C20.0498 28.4111 20.0278 28.2546 19.97 28.11L18.8 25.21ZM16.43 34.16C15.49 29.84 12.73 27.16 9.21 27.16H7.56999C4.05999 27.16 1.29003 29.84 0.360025 34.16L-0.00996963 35.84C-0.0403198 35.979 -0.0390747 36.1231 -0.00618545 36.2616C0.0267038 36.4001 0.0903362 36.5295 0.179972 36.64C0.270315 36.7521 0.384571 36.8425 0.514322 36.9048C0.644074 36.9671 0.786048 36.9996 0.929972 37H6.50004C6.65735 36.9996 6.81217 36.9612 6.95146 36.8881C7.09074 36.8149 7.21028 36.7092 7.29997 36.58C7.38764 36.4507 7.44185 36.3017 7.45756 36.1464C7.47327 35.991 7.45008 35.8341 7.39005 35.6899L6.22001 32.79C6.12433 32.5542 5.93898 32.3658 5.70463 32.2665C5.47028 32.1671 5.20608 32.1648 4.97001 32.26C4.85324 32.3059 4.74679 32.3745 4.65678 32.4619C4.56677 32.5493 4.49503 32.6538 4.44572 32.7692C4.39641 32.8845 4.37052 33.0086 4.36955 33.134C4.36857 33.2595 4.39246 33.3839 4.43998 33.5L5.08 35.09H2.12004L2.23002 34.5601C2.51002 33.2801 3.71999 29.0699 7.56999 29.0699H9.21C13.06 29.0699 14.27 33.2801 14.55 34.5601L14.67 35.09H11.7L12.35 33.5C12.4442 33.264 12.4407 33.0002 12.3404 32.7667C12.24 32.5332 12.051 32.3492 11.815 32.255C11.5789 32.1609 11.3152 32.1643 11.0817 32.2646C10.8482 32.365 10.6641 32.554 10.57 32.79L9.39005 35.6899C9.33319 35.8352 9.31248 35.9921 9.32987 36.1471C9.34727 36.3021 9.40227 36.4505 9.48991 36.5795C9.57755 36.7085 9.69525 36.8142 9.83293 36.8875C9.9706 36.9607 10.1241 36.9994 10.2801 37H15.86C16.0027 37.0006 16.1436 36.9684 16.2719 36.906C16.4002 36.8436 16.5124 36.7526 16.6 36.64C16.6897 36.5295 16.7533 36.4001 16.7862 36.2616C16.8191 36.1231 16.8203 35.979 16.79 35.84L16.43 34.16ZM26.82 25.85C26.8996 26.0913 27.0717 26.2912 27.2986 26.4056C27.5255 26.52 27.7887 26.5395 28.0301 26.46C28.2714 26.3804 28.4712 26.2082 28.5856 25.9813C28.7 25.7544 28.7196 25.4913 28.6401 25.25C27.4301 21.65 24.94 19.59 21.79 19.59H20.1501C17.0001 19.59 14.51 21.65 13.3 25.25C13.2603 25.3688 13.2447 25.4943 13.2539 25.6193C13.2632 25.7442 13.2972 25.866 13.3539 25.9777C13.4107 26.0893 13.489 26.1886 13.5845 26.2697C13.68 26.3507 13.7906 26.412 13.91 26.45C14.0058 26.4859 14.1077 26.5029 14.21 26.5C14.4108 26.5011 14.6067 26.4388 14.7701 26.3221C14.9334 26.2055 15.0559 26.0402 15.12 25.85C15.67 24.22 17.0401 21.5 20.1501 21.5H21.79C24.9 21.5 26.27 24.22 26.82 25.85V25.85ZM26.45 28.47C26.45 28.2154 26.3489 27.9712 26.1689 27.7911C25.9888 27.6111 25.7446 27.51 25.49 27.51H24.2801L24.92 25.92C24.9671 25.8039 24.9907 25.6795 24.9895 25.5542C24.9884 25.4289 24.9624 25.305 24.9131 25.1897C24.8639 25.0744 24.7923 24.97 24.7026 24.8826C24.6128 24.7951 24.5066 24.7263 24.3901 24.6801C24.154 24.5848 23.8898 24.5872 23.6554 24.6865C23.4211 24.7859 23.2357 24.9741 23.1401 25.21L21.97 28.11C21.9122 28.2546 21.8903 28.4111 21.9059 28.566C21.9216 28.721 21.9744 28.8699 22.06 29C22.1497 29.1292 22.2692 29.2349 22.4085 29.308C22.5478 29.3811 22.7027 29.4196 22.86 29.42H25.49C25.7431 29.4206 25.9861 29.3209 26.1659 29.1429C26.3458 28.965 26.4479 28.723 26.45 28.47V28.47Z" fill="white"/>
</g>
<defs>
<clipPath id="clip0">
<rect width="41.97" height="37" fill="white"/>
</clipPath>
</defs>
</svg>
