<svg width="30" height="38" viewBox="0 0 30 38" fill="none" xmlns="http://www.w3.org/2000/svg">
<path fill-rule="evenodd" clip-rule="evenodd" d="M13.022 9.56995V1.01001C13.0181 0.894539 13.0374 0.779469 13.0789 0.671631C13.1204 0.563793 13.1831 0.465402 13.2634 0.382324C13.3437 0.299246 13.4399 0.233111 13.5462 0.187988C13.6526 0.142866 13.767 0.119629 13.8825 0.119629C13.998 0.119629 14.1124 0.142866 14.2188 0.187988C14.3251 0.233111 14.4213 0.299246 14.5016 0.382324C14.5819 0.465402 14.6447 0.563793 14.6861 0.671631C14.7276 0.779469 14.747 0.894539 14.743 1.01001V9.56995C14.743 10.582 15.1451 11.5527 15.8607 12.2683C16.5763 12.9839 17.547 13.386 18.559 13.386C19.5711 13.386 20.5417 12.9839 21.2573 12.2683C21.973 11.5527 22.375 10.582 22.375 9.56995V1.01001C22.375 0.896942 22.3973 0.785003 22.4406 0.680542C22.4838 0.576081 22.5472 0.481074 22.6272 0.401123C22.7072 0.321172 22.802 0.257869 22.9065 0.2146C23.011 0.17133 23.123 0.149048 23.236 0.149048C23.3491 0.149048 23.461 0.17133 23.5655 0.2146C23.67 0.257869 23.7649 0.321172 23.8449 0.401123C23.9248 0.481074 23.9882 0.576081 24.0314 0.680542C24.0747 0.785003 24.097 0.896942 24.097 1.01001V9.56995C24.0984 10.8941 23.6287 12.1757 22.7718 13.1852C21.9149 14.1947 20.7268 14.8663 19.42 15.08V18.5699C19.4239 18.6854 19.4046 18.8006 19.3631 18.9084C19.3216 19.0163 19.2589 19.1147 19.1786 19.1978C19.0983 19.2808 19.0021 19.3468 18.8958 19.392C18.7894 19.4371 18.6751 19.4603 18.5595 19.4603C18.444 19.4603 18.3296 19.4371 18.2233 19.392C18.1169 19.3468 18.0207 19.2808 17.9404 19.1978C17.8601 19.1147 17.7973 19.0163 17.7559 18.9084C17.7144 18.8006 17.695 18.6854 17.699 18.5699V15.08C16.3922 14.8663 15.2041 14.1947 14.3472 13.1852C13.4903 12.1757 13.0206 10.8941 13.022 9.56995ZM17 10.4399C17.1136 10.4393 17.2259 10.4163 17.3306 10.3722C17.4353 10.3281 17.5303 10.2639 17.6102 10.1831C17.69 10.1023 17.7532 10.0066 17.7961 9.90137C17.8389 9.79617 17.8606 9.68354 17.86 9.56995V1.01001C17.8639 0.894539 17.8446 0.779469 17.8031 0.671631C17.7616 0.563793 17.6989 0.465402 17.6186 0.382324C17.5383 0.299246 17.4421 0.233111 17.3358 0.187988C17.2294 0.142866 17.1151 0.119629 16.9995 0.119629C16.884 0.119629 16.7696 0.142866 16.6632 0.187988C16.5569 0.233111 16.4607 0.299246 16.3804 0.382324C16.3001 0.465402 16.2374 0.563793 16.1959 0.671631C16.1544 0.779469 16.1351 0.894539 16.139 1.01001V9.56995C16.1379 9.79945 16.228 10.0201 16.3895 10.1832C16.5509 10.3464 16.7705 10.4386 17 10.4399ZM20.119 10.4399C20.3485 10.4386 20.5681 10.3464 20.7296 10.1832C20.891 10.0201 20.981 9.79945 20.98 9.56995V1.01001C20.98 0.896942 20.9578 0.785003 20.9145 0.680542C20.8712 0.576081 20.8078 0.481074 20.7278 0.401123C20.6479 0.321172 20.553 0.257869 20.4485 0.2146C20.344 0.17133 20.2321 0.149048 20.119 0.149048C20.006 0.149048 19.894 0.17133 19.7895 0.2146C19.685 0.257869 19.5901 0.321172 19.5102 0.401123C19.4302 0.481074 19.3668 0.576081 19.3236 0.680542C19.2803 0.785003 19.258 0.896942 19.258 1.01001V9.56995C19.2569 9.79945 19.347 10.0201 19.5085 10.1832C19.6699 10.3464 19.8895 10.4386 20.119 10.4399ZM6.39801 15.08V20.16C6.93657 20.3432 7.40412 20.6906 7.7349 21.1534C8.06568 21.6162 8.24304 22.1711 8.24201 22.74V34.09C8.24201 34.8074 7.95703 35.4954 7.44974 36.0027C6.94245 36.51 6.2544 36.795 5.53699 36.795C4.81958 36.795 4.13156 36.51 3.62427 36.0027C3.11699 35.4954 2.832 34.8074 2.832 34.09V22.74C2.83112 22.1712 3.00854 21.6163 3.3393 21.1536C3.67006 20.6908 4.13753 20.3434 4.676 20.16V15.08C3.3692 14.8663 2.18108 14.1947 1.32419 13.1852C0.4673 12.1757 -0.00245164 10.8941 -0.00100374 9.56995V5.56995C-0.00100374 4.10118 0.58246 2.69263 1.62104 1.65405C2.65961 0.615476 4.06822 0.0319824 5.53699 0.0319824C7.00576 0.0319824 8.4144 0.615476 9.45298 1.65405C10.4916 2.69263 11.075 4.10118 11.075 5.56995V9.56995C11.0765 10.8938 10.6071 12.1751 9.75058 13.1846C8.89409 14.194 7.70642 14.8658 6.4 15.08H6.39801ZM5.53699 21.75C5.40739 21.7503 5.27912 21.7761 5.15952 21.826C5.03992 21.876 4.93135 21.949 4.84003 22.041C4.74871 22.133 4.67643 22.242 4.62735 22.3619C4.57827 22.4819 4.55333 22.6104 4.55399 22.74V34.09C4.54979 34.2218 4.57213 34.3531 4.61966 34.4761C4.6672 34.5991 4.73898 34.7113 4.83072 34.806C4.92246 34.9007 5.0323 34.976 5.15372 35.0275C5.27514 35.0789 5.40565 35.1053 5.53751 35.1053C5.66937 35.1053 5.79988 35.0789 5.9213 35.0275C6.04272 34.976 6.15255 34.9007 6.2443 34.806C6.33604 34.7113 6.40782 34.5991 6.45536 34.4761C6.50289 34.3531 6.5252 34.2218 6.521 34.09V22.74C6.52153 22.6103 6.49649 22.4819 6.4473 22.3619C6.39811 22.242 6.32575 22.1328 6.23435 22.0409C6.14295 21.9489 6.0343 21.876 5.91465 21.826C5.79499 21.7761 5.66664 21.7503 5.53699 21.75ZM9.353 9.56995V5.56995C9.35381 4.55542 8.9528 3.58193 8.23767 2.8623C7.52255 2.14268 6.5515 1.73553 5.53699 1.72998C4.52248 1.73553 3.55146 2.14268 2.83634 2.8623C2.12121 3.58193 1.7202 4.55542 1.72101 5.56995V9.56995C1.72101 10.0711 1.81971 10.5673 2.01148 11.0303C2.20325 11.4933 2.48434 11.914 2.83869 12.2683C3.19304 12.6227 3.61372 12.9038 4.07669 13.0956C4.53967 13.2874 5.03587 13.386 5.53699 13.386C6.03811 13.386 6.53434 13.2874 6.99732 13.0956C7.4603 12.9038 7.88098 12.6227 8.23532 12.2683C8.58967 11.914 8.87076 11.4933 9.06253 11.0303C9.25431 10.5673 9.353 10.0711 9.353 9.56995ZM5.65799 3.07996C4.93406 3.0794 4.23806 3.3593 3.71601 3.86084C3.19396 4.36238 2.88645 5.04664 2.85801 5.77002C2.84741 5.99794 2.92771 6.22078 3.08127 6.38953C3.23483 6.55828 3.4491 6.65916 3.67701 6.67004H3.71799C3.93907 6.66978 4.15158 6.58442 4.3115 6.43176C4.47141 6.27911 4.56647 6.0708 4.577 5.84998C4.58887 5.57265 4.70744 5.31072 4.90796 5.11877C5.10848 4.92683 5.37544 4.81969 5.65302 4.81995C5.88376 4.82061 6.1053 4.72958 6.26892 4.56689C6.43255 4.40421 6.52485 4.18325 6.52552 3.95251C6.52618 3.72178 6.43515 3.50017 6.27246 3.33655C6.10978 3.17292 5.88873 3.08062 5.65799 3.07996ZM29.992 30.37C29.524 33.76 26.56 36.7 22.617 37.67C21.7374 37.8871 20.835 37.9978 19.929 38C17.9272 38.0332 15.9681 37.4194 14.343 36.25C13.5711 36.3026 12.7958 36.2386 12.043 36.0601L11.648 36.54C11.5764 36.6279 11.4879 36.7005 11.3879 36.7538C11.2878 36.807 11.1781 36.8397 11.0652 36.85C10.9523 36.8602 10.8384 36.8478 10.7304 36.8135C10.6223 36.7791 10.5223 36.7236 10.436 36.65C10.26 36.5027 10.1494 36.2917 10.1285 36.0631C10.1075 35.8345 10.1778 35.607 10.324 35.4301L10.718 34.95C9.34399 31.85 10.092 27.8001 12.669 24.6801C15.398 21.3701 19.518 19.9 22.922 21.02C23.1318 21.088 23.3068 21.2351 23.41 21.4301C24.2229 22.9839 24.5259 24.7542 24.276 26.49C25.1034 26.6215 25.9102 26.8601 26.676 27.2C27.9411 27.7494 29.0343 28.6305 29.84 29.75C29.9676 29.9299 30.0219 30.1515 29.992 30.37ZM14.637 34.49C16.5383 34.2206 18.2977 33.3312 19.642 31.96C19.661 31.94 19.68 31.92 19.701 31.9C19.943 31.66 20.176 31.4 20.401 31.13C21.362 29.9831 22.0487 28.6323 22.409 27.1801C22.4157 27.0978 22.4342 27.0169 22.464 26.9399C22.8065 25.4783 22.6662 23.9451 22.064 22.5699C19.421 21.8899 16.156 23.17 14.001 25.79C13.0906 26.8126 12.4348 28.0358 12.0872 29.3601C11.7396 30.6844 11.7101 32.0722 12.001 33.41L17.033 27.3101C17.1047 27.2221 17.1932 27.1493 17.2934 27.0961C17.3936 27.0428 17.5034 27.0101 17.6164 26.9999C17.7294 26.9896 17.8432 27.002 17.9514 27.0364C18.0595 27.0707 18.1596 27.1264 18.246 27.2C18.4215 27.3476 18.5318 27.5586 18.5527 27.787C18.5737 28.0154 18.5037 28.2429 18.358 28.42L13.327 34.52C13.685 34.55 14.045 34.55 14.403 34.52C14.4796 34.5009 14.5581 34.4908 14.637 34.49ZM28.228 30.47C27.6203 29.7382 26.8492 29.1594 25.977 28.78C25.3177 28.494 24.6239 28.2955 23.913 28.1899C23.6011 29.2149 23.147 30.1911 22.564 31.09L24.209 30.6899C24.3187 30.6623 24.4328 30.6568 24.5447 30.6736C24.6566 30.6904 24.7641 30.7293 24.8609 30.7878C24.9577 30.8464 25.042 30.9237 25.1088 31.015C25.1756 31.1064 25.2235 31.2099 25.25 31.3199C25.2659 31.3888 25.2739 31.4593 25.274 31.53C25.274 31.7231 25.2094 31.9107 25.0905 32.0629C24.9717 32.2151 24.8053 32.3232 24.618 32.37L20.702 33.33C19.6129 34.3707 18.3243 35.1803 16.914 35.71C18.6097 36.337 20.4557 36.4346 22.208 35.99C25.283 35.23 27.7 32.99 28.228 30.47Z" fill="white"/>
</svg>
